<?xml version="1.0" standalone="no"?>
<!DOCTYPE svg PUBLIC "-//W3C//DTD SVG 20010904//EN"
 "http://www.w3.org/TR/2001/REC-SVG-20010904/DTD/svg10.dtd">
<svg version="1.0" xmlns="http://www.w3.org/2000/svg"
 width="335.000000pt" height="132.000000pt" viewBox="0 0 335.000000 132.000000"
 preserveAspectRatio="xMidYMid meet">

<g transform="translate(0.000000,132.000000) scale(0.100000,-0.100000)"
fill="#000000" stroke="none">
<path d="M0 663 l0 -658 185 0 c121 -1 181 3 175 9 -6 6 -10 69 -10 143 0 121
2 133 19 143 25 13 247 13 272 0 12 -7 19 -21 19 -38 -1 -23 -2 -25 -11 -9 -9
15 -27 17 -146 17 -120 0 -134 2 -123 15 11 13 10 14 -4 9 -14 -5 -16 -25 -16
-140 0 -117 2 -134 18 -141 9 -5 67 -8 127 -7 146 3 143 2 148 16 2 7 3 5 2
-4 -3 -17 67 -18 1346 -18 l1349 0 0 660 0 660 -1675 0 -1675 0 0 -657z m643
633 c9 -7 17 -24 17 -37 -1 -21 -2 -22 -11 -6 -9 15 -27 17 -139 17 -74 0
-130 4 -130 9 0 5 10 12 23 14 21 4 21 4 1 6 -30 2 -42 -17 -47 -69 l-4 -45
-1 52 c-2 40 2 54 16 62 26 16 253 13 275 -3z m341 -2 c10 -9 16 -32 15 -57
-1 -43 -3 -42 -13 5 l-6 27 -138 3 c-114 3 -133 5 -112 15 14 6 18 12 10 12
-40 2 -45 -14 -45 -148 0 -71 4 -133 8 -138 5 -4 66 -11 135 -14 l127 -5 -122
-2 c-165 -3 -163 -4 -163 158 0 162 -2 160 164 160 100 0 128 -3 140 -16z
m-734 -9 c23 -13 17 -14 -70 -14 -87 0 -93 1 -70 14 14 8 45 14 70 14 25 0 56
-6 70 -14z m127 -272 c18 -14 240 -18 259 -5 6 4 14 14 17 22 4 12 6 12 6 -2
2 -29 -33 -38 -154 -38 -141 0 -156 6 -153 63 1 40 1 40 5 7 2 -19 11 -41 20
-47z m620 25 c-2 -13 -4 -5 -4 17 -1 22 1 32 4 23 2 -10 2 -28 0 -40z m-678
-82 c6 -4 11 -26 10 -49 l0 -42 -12 35 -12 35 -133 0 c-109 0 -131 2 -127 14
4 11 2 11 -8 3 -18 -15 -23 -232 -7 -262 11 -21 18 -21 150 -18 76 2 133 0
127 -4 -7 -4 -68 -8 -136 -8 -166 0 -161 -5 -161 160 0 73 4 130 10 136 12 12
280 11 299 0z m334 5 c4 0 7 -16 6 -33 0 -31 -1 -31 -10 -10 -9 23 -11 24
-143 20 -112 -2 -133 -1 -128 11 3 9 1 12 -6 7 -19 -11 -16 -260 2 -275 10 -8
55 -11 144 -9 72 2 128 0 125 -4 -7 -12 -252 -9 -274 2 -17 10 -19 22 -19 143
0 79 4 137 10 143 9 9 254 13 293 5z m-326 -248 c-2 -16 -4 -3 -4 27 0 30 2
43 4 28 2 -16 2 -40 0 -55z m-9 -87 c7 -4 11 -31 11 -64 -1 -31 -3 -46 -6 -32
-12 76 1 70 -149 70 -122 0 -135 2 -130 16 5 14 4 15 -8 5 -18 -15 -22 -230
-6 -262 10 -18 20 -19 148 -17 l137 3 6 60 6 60 1 -56 c1 -32 -3 -60 -10 -67
-8 -8 -55 -12 -144 -12 -107 0 -136 3 -148 16 -13 12 -16 40 -16 135 0 66 4
128 9 138 9 16 25 17 149 16 76 -1 144 -5 150 -9z m330 1 c6 -5 11 -20 11 -35
-1 -17 -3 -21 -6 -9 -4 15 -20 17 -145 17 -130 0 -139 1 -127 17 12 14 12 16
-1 11 -12 -4 -15 -29 -15 -144 l0 -139 140 -5 140 -6 -136 -2 c-94 -1 -139 2
-147 10 -15 15 -17 269 -2 284 12 12 269 12 288 1z m340 -1 c7 -4 12 -26 11
-49 l-1 -42 -9 33 -10 32 -135 0 c-122 0 -135 2 -130 16 5 13 4 14 -7 6 -16
-14 -18 -255 -2 -271 6 -6 71 -12 145 -14 l135 -3 -137 -2 c-113 -2 -139 1
-152 14 -13 12 -16 40 -16 135 0 66 4 128 9 138 9 16 25 17 149 16 76 -1 144
-5 150 -9z m9 -248 c-2 -13 -4 -5 -4 17 -1 22 1 32 4 23 2 -10 2 -28 0 -40z
m-692 -80 c23 -10 25 -16 24 -72 -1 -34 -4 -47 -6 -31 -10 81 2 75 -148 75
-88 0 -135 4 -135 11 0 5 -4 8 -9 5 -5 -3 -8 -66 -7 -140 0 -74 -2 -132 -6
-129 -5 2 -8 61 -8 130 0 167 -4 163 151 163 68 0 129 -5 144 -12z m22 -246
c-2 -15 -4 -2 -4 28 0 30 2 43 4 27 2 -15 2 -39 0 -55z"/>
<path d="M513 1293 c9 -2 25 -2 35 0 9 3 1 5 -18 5 -19 0 -27 -2 -17 -5z"/>
<path d="M768 1293 c7 -3 16 -2 19 1 4 3 -2 6 -13 5 -11 0 -14 -3 -6 -6z"/>
</g>
</svg>
